<svg xmlns="http://www.w3.org/2000/svg" width="41.154" height="38.815" viewBox="0 0 41.154 38.815">
  <g id="Layer_2" transform="translate(-90.2 -99.8)">
    <g id="Group_1" data-name="Group 1" transform="translate(90.2 99.8)">
      <path id="Path_4" data-name="Path 4" d="M91.131,101.65h5.451l2.806,8.158,1.49,4.942v.012l1.838,6.1c0,.012.012.025.012.037l1.13,3.738h-.435a4.073,4.073,0,1,0,0,8.146h2.024a3.847,3.847,0,1,0,7.14,1.987,3.74,3.74,0,0,0-.559-1.987h7.388a3.847,3.847,0,1,0,7.14,1.987,3.74,3.74,0,0,0-.559-1.987h1.676a.931.931,0,0,0,0-1.863H103.412a2.21,2.21,0,1,1,0-4.42h22.177a.947.947,0,0,0,.894-.658l1.49-4.942v-.025l3.34-11.076a.885.885,0,0,0-.149-.82.935.935,0,0,0-.745-.373h-29.5l-2.806-8.17a.937.937,0,0,0-.882-.633h-6.1a.938.938,0,0,0-.931.931A.927.927,0,0,0,91.131,101.65Zm19.594,33.1a1.987,1.987,0,1,1-1.987-1.987A1.993,1.993,0,0,1,110.725,134.754Zm13.982,0a1.987,1.987,0,1,1-1.987-1.987A1.993,1.993,0,0,1,124.707,134.754Zm1.7-15.1h-3.564l.82-4.247h4.023Zm-5.463,0h-4.656v-4.247h5.488Zm-4.656,4.967v-3.1h4.3l-.6,3.1Zm-5.563,0-.6-3.1h4.3v3.1Zm-5.861-3.1h3.365l.6,3.1H105.8Zm11.424-7.972v-3.1h6.444l-.6,3.1Zm-1.863,0h-5.848l-.6-3.1h6.444Zm0,1.863v4.247h-4.656l-.82-4.247h5.476Zm-6.556,4.247h-3.564l-1.279-4.247h4.023Zm17.048,4.967h-3.03l.6-3.1h3.365Zm3.34-11.076h-4.222l.6-3.1h4.557Zm-22.177-3.1.6,3.1h-4.222l-.931-3.1Z" transform="translate(-90.2 -99.8)"/>
    </g>
  </g>
</svg>
