<svg xmlns="http://www.w3.org/2000/svg" width="43.476" height="51.588" viewBox="0 0 43.476 51.588">
  <g id="Layer_4" data-name="Layer 4" transform="translate(-7.4 0.003)">
    <path id="Path_1" data-name="Path 1" d="M35.149,4.189h0a5.7,5.7,0,0,0,4.306,3.128h0a5.72,5.72,0,0,1,3.172,9.763h0a5.756,5.756,0,0,0-1.643,5.07h0a5.72,5.72,0,0,1-8.33,6.028h0a5.756,5.756,0,0,0-5.325,0h0a5.72,5.72,0,0,1-8.3-6.028h0a5.756,5.756,0,0,0-1.643-5.07h0a5.72,5.72,0,0,1,3.2-9.763h0a5.7,5.7,0,0,0,4.306-3.128h0a5.72,5.72,0,0,1,10.263,0Z" transform="translate(-0.88 0)" fill="none" stroke="#002b36" stroke-linecap="round" stroke-linejoin="round" stroke-width="2"/>
    <line id="Line_1" data-name="Line 1" x2="0.304" y2="23.043" transform="translate(29.138 27.528)" fill="none" stroke="#002b36" stroke-linecap="round" stroke-linejoin="round" stroke-width="2"/>
    <circle id="Ellipse_1" data-name="Ellipse 1" cx="5.457" cy="5.457" r="5.457" transform="translate(23.681 9.936)" fill="none" stroke="#002b36" stroke-linecap="round" stroke-linejoin="round" stroke-width="2"/>
    <path id="Path_2" data-name="Path 2" d="M8.4,47.01h0a14.06,14.06,0,0,1,20.738,0h0a14.06,14.06,0,0,1-20.738,0Z" transform="translate(0 -5.027)" fill="none" stroke="#002b36" stroke-linecap="round" stroke-linejoin="round" stroke-width="2"/>
    <path id="Path_3" data-name="Path 3" d="M52.738,40.66h0A14.06,14.06,0,0,1,32,40.66h0a14.06,14.06,0,0,1,20.738,0Z" transform="translate(-2.862 -4.257)" fill="none" stroke="#002b36" stroke-linecap="round" stroke-linejoin="round" stroke-width="2"/>
    <line id="Line_2" data-name="Line 2" x2="10.509" transform="translate(29.138 36.403)" fill="none" stroke="#002b36" stroke-linecap="round" stroke-linejoin="round" stroke-width="2"/>
    <line id="Line_3" data-name="Line 3" x1="9.701" transform="translate(19.437 41.983)" fill="none" stroke="#002b36" stroke-linecap="round" stroke-linejoin="round" stroke-width="2"/>
  </g>
</svg>
