<svg xmlns="http://www.w3.org/2000/svg" width="18.877" height="22.309" viewBox="0 0 18.877 22.309">
  <g id="user_people_person_users_man" data-name="user people person users man" transform="translate(-5 -3)">
    <path id="Path_5" data-name="Path 5" d="M21.079,16.139a.859.859,0,1,0-1.21,1.218,7.722,7.722,0,0,1,2.291,5.491c0,1.047-3.012,2.574-7.722,2.574S6.716,23.9,6.716,22.848a7.722,7.722,0,0,1,2.257-5.466.855.855,0,1,0-1.21-1.21A9.37,9.37,0,0,0,5,22.848c0,2.789,4.865,4.29,9.438,4.29s9.438-1.5,9.438-4.29a9.387,9.387,0,0,0-2.8-6.71Z" transform="translate(0 -1.83)"/>
    <path id="Path_6" data-name="Path 6" d="M15.006,15.012A6.006,6.006,0,1,0,9,9.006,6.006,6.006,0,0,0,15.006,15.012Zm0-10.3a4.29,4.29,0,1,1-4.29,4.29A4.29,4.29,0,0,1,15.006,4.716Z" transform="translate(-0.568 0)"/>
  </g>
</svg>
