<svg xmlns="http://www.w3.org/2000/svg" width="18.876" height="22.308" viewBox="0 0 18.876 22.308">
  <g id="white-user" transform="translate(-5 -3)">
    <path id="Path_5" data-name="Path 5" d="M21.079,16.139a.859.859,0,1,0-1.21,1.218,7.722,7.722,0,0,1,2.291,5.491c0,1.047-3.012,2.574-7.722,2.574S6.716,23.9,6.716,22.848a7.722,7.722,0,0,1,2.257-5.466.856.856,0,1,0-1.21-1.21A9.37,9.37,0,0,0,5,22.848c0,2.789,4.865,4.29,9.438,4.29s9.438-1.5,9.438-4.29a9.387,9.387,0,0,0-2.8-6.71Z" transform="translate(0 -1.83)" fill="#fff"/>
    <path id="Path_6" data-name="Path 6" d="M15.006,15.012A6.006,6.006,0,1,0,9,9.006a6.006,6.006,0,0,0,6.006,6.006Zm0-10.3A4.29,4.29,0,1,1,10.716,9a4.29,4.29,0,0,1,4.29-4.29Z" transform="translate(-0.568)" fill="#fff"/>
  </g>
</svg>
